<?xml version="1.0" encoding="UTF-8" standalone="no"?>
<!-- Created with Inkscape (http://www.inkscape.org/) -->

<svg
   xmlns:dc="http://purl.org/dc/elements/1.1/"
   xmlns:cc="http://creativecommons.org/ns#"
   xmlns:rdf="http://www.w3.org/1999/02/22-rdf-syntax-ns#"
   xmlns:svg="http://www.w3.org/2000/svg"
   xmlns="http://www.w3.org/2000/svg"
   version="1.2"
   width="1000"
   height="1000"
   id="svg2"
   style="enable-background:new">
  <defs
     id="defs4" />
  <metadata
     id="metadata7">
    <rdf:RDF>
      <cc:Work
         rdf:about="">
        <dc:format>image/svg+xml</dc:format>
        <dc:type
           rdf:resource="http://purl.org/dc/dcmitype/StillImage" />
        <dc:title></dc:title>
      </cc:Work>
    </rdf:RDF>
  </metadata>
  <g
     transform="translate(0,-52.362183)"
     id="layer1"
     style="display:inline">
    <path
       d="m 1.1343385,51.568237 1005.5703615,0 0,1005.570263 -1005.5703615,0 z"
       id="rect3754"
       style="fill:#439a86;fill-opacity:1;stroke:#529dd9;stroke-width:0.09732176;stroke-linecap:round;stroke-linejoin:round;stroke-miterlimit:4;stroke-opacity:1;stroke-dashoffset:0" />
    <g
       transform="translate(26.331483,50.238154)"
       id="flowRoot3756"
       style="font-size:700px;font-style:normal;font-variant:normal;font-weight:normal;font-stretch:normal;line-height:125%;letter-spacing:0px;word-spacing:0px;fill:#ffffff;fill-opacity:1;stroke:none;display:inline;font-family:Droid Sans;-inkscape-font-specification:Droid Sans">
      <path
         d="m 426.12109,726.75566 -72.11914,0 -154.15039,-238.57422 -47.50976,38.96485 0,199.60937 -63.574222,0 0,-499.70703 63.574222,0 0,249.85352 41.35742,-57.42188 154.49219,-192.43164 71.43554,0 -177.73437,217.72461 184.22851,281.98242"
         id="path4036"
         style="fill:#ffffff;font-family:Droid Sans;-inkscape-font-specification:Droid Sans" />
      <path
         d="m 889.25586,476.21855 c -4.8e-4,29.85048 -2.84878,57.64994 -8.54492,83.39844 -5.46921,25.74884 -13.67233,48.991 -24.60938,69.72656 -10.71007,20.50789 -24.15406,38.39524 -40.33203,53.66211 -16.17877,15.03909 -34.86365,26.77411 -56.05469,35.20508 l 115.52735,127.49024 -83.39844,0 -94.67773,-113.47657 c -3.87398,0.45573 -7.86161,0.79752 -11.9629,1.02539 -4.10183,0.22786 -8.20338,0.34179 -12.30468,0.3418 -37.14215,-10e-6 -69.38496,-6.15234 -96.72852,-18.45703 -27.11602,-12.30466 -49.67459,-29.73629 -67.67578,-52.29492 -17.77351,-22.55851 -30.98965,-49.67437 -39.64844,-81.34766 -8.6589,-31.90086 -12.98832,-67.21984 -12.98828,-105.95703 -4e-5,-38.73669 4.32938,-73.8278 12.98828,-105.27344 8.65879,-31.67279 21.98886,-58.67471 39.99024,-81.00586 18.00119,-22.33027 40.55976,-39.53403 67.67578,-51.61133 27.34356,-12.30418 59.7003,-18.45652 97.07031,-18.45703 35.09085,5.1e-4 66.0804,6.15285 92.96875,18.45703 26.88764,12.0773 49.44621,29.395 67.67578,51.95313 18.22873,22.33114 31.90059,49.33307 41.01563,81.00586 9.34197,31.44564 14.01319,66.65068 14.01367,105.61523 m -366.06445,0 c -1.1e-4,31.21767 2.96212,59.35892 8.88671,84.42383 5.92436,24.83738 14.925,46.02877 27.00196,63.57422 12.30453,17.31779 27.7993,30.64786 46.48437,39.99023 18.91255,9.11464 41.35719,13.67193 67.33399,13.67188 25.97627,5e-5 48.30698,-4.55724 66.99218,-13.67188 18.91242,-9.34237 34.4072,-22.67244 46.48438,-39.99023 12.3043,-17.54545 21.30494,-38.73684 27.00195,-63.57422 5.69621,-25.06491 8.54452,-53.20616 8.54492,-84.42383 -4e-4,-31.44503 -2.84871,-59.58628 -8.54492,-84.42382 -5.69701,-24.83688 -14.58372,-45.80041 -26.66015,-62.89063 -12.07719,-17.31729 -27.45803,-30.53343 -46.14258,-39.64844 -18.68521,-9.342 -41.01591,-14.01322 -66.99219,-14.01367 -25.9768,4.5e-4 -48.42143,4.67167 -67.33398,14.01367 -18.91294,9.11501 -34.52165,22.33115 -46.82618,39.64844 -12.30482,17.09022 -21.41939,38.05375 -27.34375,62.89063 -5.92459,24.83754 -8.88682,52.97879 -8.88671,84.42382"
         id="path4038"
         style="fill:#ffffff;font-family:Droid Sans;-inkscape-font-specification:Droid Sans" />
    </g>
  </g>
</svg>
